<svg width="32" height="33" viewBox="0 0 32 33" fill="none" xmlns="http://www.w3.org/2000/svg">
<path d="M14.1333 22.6333L23.5333 13.2333L21.6667 11.3667L14.1333 18.9L10.3333 15.1L8.46667 16.9667L14.1333 22.6333ZM16 29.8333C14.1556 29.8333 12.4222 29.4831 10.8 28.7827C9.17778 28.0831 7.76667 27.1333 6.56667 25.9333C5.36667 24.7333 4.41689 23.3222 3.71734 21.7C3.01689 20.0778 2.66667 18.3444 2.66667 16.5C2.66667 14.6556 3.01689 12.9222 3.71734 11.3C4.41689 9.67778 5.36667 8.26666 6.56667 7.06666C7.76667 5.86666 9.17778 4.91644 10.8 4.216C12.4222 3.51644 14.1556 3.16666 16 3.16666C17.8444 3.16666 19.5778 3.51644 21.2 4.216C22.8222 4.91644 24.2333 5.86666 25.4333 7.06666C26.6333 8.26666 27.5831 9.67778 28.2827 11.3C28.9831 12.9222 29.3333 14.6556 29.3333 16.5C29.3333 18.3444 28.9831 20.0778 28.2827 21.7C27.5831 23.3222 26.6333 24.7333 25.4333 25.9333C24.2333 27.1333 22.8222 28.0831 21.2 28.7827C19.5778 29.4831 17.8444 29.8333 16 29.8333Z" fill="#47BA68"/>
</svg>
