<svg width="58" height="58" viewBox="0 0 58 58" fill="none" xmlns="http://www.w3.org/2000/svg">
<path d="M29.0002 0.186279C13.1122 0.186279 0.186523 13.112 0.186523 29C0.186523 44.888 13.1122 57.8137 29.0002 57.8137C44.8882 57.8137 57.814 44.888 57.814 29C57.814 13.112 44.8882 0.186279 29.0002 0.186279ZM29.0002 52.0537C16.2894 52.0537 5.94652 41.7118 5.94652 29C5.94652 16.2882 16.2889 5.94628 29.0002 5.94628C41.7116 5.94628 52.054 16.2887 52.054 29C52.054 41.7113 41.7116 52.0537 29.0002 52.0537Z" fill="white"/>
<path d="M31.8345 28.1679C31.8577 28.0206 31.88 27.8737 31.88 27.7197V15.1597C31.88 13.5695 30.5903 12.2798 29.0001 12.2798C27.41 12.2798 26.1202 13.5695 26.1202 15.1597V27.7208C26.1202 27.9659 26.0894 30.7538 26.9939 31.5646L35.9059 39.5538C36.4555 40.0471 37.1429 40.2891 37.8273 40.2891C38.617 40.2891 39.4041 39.9659 39.9732 39.3315C41.0348 38.1467 40.9357 36.3266 39.7513 35.265L31.8345 28.1679Z" fill="white"/>
</svg>
