<svg width="62" height="46" viewBox="0 0 62 46" fill="none" xmlns="http://www.w3.org/2000/svg">
<path d="M50.7846 15.0605V21.1404C50.7846 21.3569 50.6998 21.5735 50.5587 21.7427C47.4342 25.4507 38.4079 26.7686 31.001 26.7686C23.5844 26.7686 14.5587 25.4508 11.425 21.7427C11.2835 21.5735 11.2085 21.3569 11.2085 21.1404V15.0605L29.5799 19.0324C30.013 19.1454 30.4741 19.1923 31.001 19.1923C31.5094 19.1923 31.9893 19.1454 32.3844 19.0418L50.7846 15.0605Z" fill="white"/>
<path d="M61.9742 8.95209C61.9742 10.0061 61.2778 10.8628 60.252 11.0887L57.052 11.7851V22.1757C58.4828 22.7217 59.5086 24.5003 59.518 26.665L59.2921 26.4391C58.7649 25.9685 58.097 25.7052 57.4001 25.7052C57.2684 25.7052 57.1367 25.7145 57.0238 25.7333L52.713 26.298C52.8353 24.3029 53.8237 22.6837 55.1693 22.1757V12.1895L31.9875 17.2061C31.6675 17.2816 31.3286 17.3097 30.9992 17.3097C30.6603 17.3097 30.3308 17.2816 30.0201 17.2061L1.73785 11.0883C0.712396 10.8628 0.0253906 10.0061 0.0253906 8.95218C0.0253906 7.90754 0.712442 7.05081 1.7383 6.82498L30.0206 0.697776C30.6509 0.566085 31.3384 0.556702 31.9876 0.697776L60.2504 6.82498C61.2768 7.05132 61.9732 7.90757 61.9732 8.95218L61.9742 8.95209Z" fill="white"/>
<path d="M32.9969 39.7682L33.146 39.7851V30.7686L30.9907 31.0507L28.8447 30.7686V39.7851L28.9987 39.7677L27.0385 44.0726C26.8229 44.5458 27.0323 45.1039 27.505 45.3195C27.9849 45.5369 28.5381 45.3213 28.7519 44.853L30.9978 39.9204L33.2438 44.8525C33.4598 45.3257 34.0188 45.5347 34.4906 45.319C34.9634 45.1034 35.1728 44.5454 34.9571 44.0722L32.9969 39.7682Z" fill="white"/>
<path d="M26.9628 30.5248L4.73193 27.5976C4.45917 27.5601 4.18596 27.6445 3.97881 27.8329C2.34133 29.3012 1.8235 33.3012 2.03059 36.6047C2.13416 38.3083 2.54844 41.3199 4.07299 42.3739C4.2328 42.4868 4.4212 42.5431 4.60959 42.5431C4.64709 42.5431 4.68504 42.5431 4.71316 42.5337L26.9623 40.0021L26.9628 30.5248Z" fill="white"/>
<path d="M58.747 28.7453C58.5211 28.3596 58.2764 28.0676 58.0224 27.8324C57.8153 27.644 57.5425 27.5596 57.2693 27.5971L35.0293 30.5243V40.002L57.2887 42.5337C57.5146 42.5618 57.7405 42.5055 57.9289 42.3739C60.6298 40.4912 60.4699 31.7668 58.7477 28.7453L58.747 28.7453Z" fill="white"/>
</svg>
