<svg width="60" height="60" viewBox="0 0 60 60" fill="none" xmlns="http://www.w3.org/2000/svg">
<path d="M18.5518 1.43163C18.0491 0.945471 17.3754 0.676717 16.6763 0.682968C15.9772 0.689218 15.308 0.969574 14.8138 1.46377C14.3192 1.95841 14.0388 2.6272 14.033 3.32628C14.0268 4.02539 14.2955 4.69908 14.7812 5.20217L23.5625 13.9834H8.6665C6.54513 13.9834 4.51028 14.8263 3.00982 16.3267C1.50936 17.8267 0.666504 19.8616 0.666504 21.9834V51.3171C0.666504 53.439 1.50936 55.4734 3.00982 56.9738C4.51028 58.4738 6.54513 59.3171 8.6665 59.3171H51.3339C53.4553 59.3171 55.4902 58.4738 56.9906 56.9738C58.4906 55.4734 59.3339 53.439 59.3339 51.3171V21.9834C59.3339 19.8616 58.4906 17.8267 56.9906 16.3267C55.4902 14.8263 53.4553 13.9834 51.3339 13.9834H36.4379L45.2192 5.20217C45.7049 4.69905 45.9737 4.02537 45.9679 3.32628C45.9616 2.62717 45.6808 1.9584 45.1866 1.46377C44.692 0.969574 44.0232 0.689219 43.3241 0.682968C42.625 0.676718 41.9513 0.945471 41.4487 1.43163L30.0007 12.8796L18.5518 1.43163ZM5.99977 21.9836C5.99977 21.2765 6.28057 20.5979 6.78102 20.0979C7.28102 19.5979 7.95919 19.3171 8.66628 19.3171H51.3337C52.0408 19.3171 52.719 19.5979 53.219 20.0979C53.719 20.5979 54.0002 21.2764 54.0002 21.9836V51.3173C54.0002 52.0245 53.719 52.7026 53.219 53.2026C52.719 53.703 52.0408 53.9838 51.3337 53.9838H8.66628C7.95913 53.9838 7.28102 53.703 6.78102 53.2026C6.28057 52.7026 5.99977 52.0244 5.99977 51.3173V21.9836Z" fill="white"/>
</svg>
